<svg width="1787" height="491" viewBox="0 0 1787 491" fill="none" xmlns="http://www.w3.org/2000/svg">
<rect width="1787" height="491" rx="10" fill="#5965E0"/>
<path d="M777.222 225.017L753.416 340.453H691.402L715.208 225.017C717.073 215.944 715.991 214.272 707.204 214.272H684.816C676.085 214.272 674.256 215.944 672.409 224.787C672.409 224.787 672.409 224.941 672.409 225.017L648.603 340.453H586.532L610.357 225.017C612.223 215.944 611.141 214.272 602.335 214.272H579.947C571.141 214.272 569.368 215.963 567.503 225.017L543.678 340.453H481.663L518.212 163.253H568.585L576.57 178.478C581.163 173.494 586.723 169.563 592.889 166.94C599.054 164.317 605.686 163.061 612.353 163.253H625.208C649.461 163.253 665.823 174.114 671.682 192.472C682.521 172.057 698.23 163.253 717.204 163.253H730.077C766.513 163.253 785.039 187.493 777.222 225.017Z" fill="white"/>
<path d="M966.345 225.018L955.281 278.689C947.539 316.213 918.994 340.454 882.52 340.454H835.543C799.125 340.454 780.599 316.194 788.341 278.67L799.405 225.018C807.129 187.494 835.673 163.253 872.166 163.253H919.218C955.561 163.253 974.106 187.494 966.345 225.018ZM904.274 225.018C906.14 215.944 905.058 214.272 896.27 214.272H873.882C865.076 214.272 863.304 215.964 861.438 225.018L850.356 278.67C848.491 287.743 849.591 289.416 858.379 289.416H880.767C889.554 289.416 891.345 287.724 893.211 278.67L904.274 225.018Z" fill="white"/>
<path d="M1353.38 210.907C1351.11 220.981 1345.63 229.981 1337.82 236.474L1306.23 263.387C1298.66 269.949 1289.13 273.64 1279.24 273.845H1235.5L1234.52 278.593C1232.65 287.666 1233.73 289.339 1242.54 289.339H1337.17L1326.64 340.377H1219.63C1183.21 340.377 1164.68 316.117 1172.43 278.593L1183.49 224.94C1191.23 187.417 1219.78 163.176 1256.25 163.176H1303.34C1339.67 163.253 1358.45 186.225 1353.38 210.907ZM1288.42 225.017C1290.28 215.944 1289.2 214.272 1280.39 214.272H1258C1249.24 214.252 1247.37 215.963 1245.5 225.017L1241.77 243.491H1278.71C1280.37 243.42 1281.96 242.794 1283.24 241.708C1284.52 240.622 1285.42 239.136 1285.8 237.474L1288.42 225.017Z" fill="white"/>
<path d="M1423.1 310.369C1419.67 326.997 1406.92 340.473 1387.65 340.473C1368.38 340.473 1361.21 327.016 1364.65 310.369C1368.08 293.722 1380.82 280.285 1400.09 280.285C1419.37 280.285 1426.47 293.722 1423.1 310.369Z" fill="#4CD62B"/>
<path d="M1556.16 163.253L1545.63 214.252L1519.52 340.434H1457.52L1483.64 214.252H1452.69L1463.23 163.234L1556.16 163.253ZM1510.11 130.17C1499.37 117.867 1502.65 96.7596 1517.41 83.0534C1532.16 69.3472 1552.85 68.2322 1563.66 80.5543C1574.46 92.8765 1571.12 113.984 1556.36 127.69C1541.6 141.396 1520.88 142.511 1510.11 130.17Z" fill="white"/>
<path d="M1655.67 188.763L1637.13 278.67C1635.26 287.743 1636.34 289.416 1645.13 289.416H1683.69L1673.17 340.454H1622.26C1585.84 340.454 1567.3 316.194 1575.04 278.67L1593.58 188.763H1570.13L1580.65 137.725H1604.16L1612.78 95.9332H1674.85L1666.23 137.725H1715.04L1704.46 188.763H1655.67Z" fill="white"/>
<path d="M239.649 97.9899H318.343L252.876 419H174.183L239.649 97.9899Z" fill="white"/>
<path d="M355.115 97.9899H433.809L382.801 349.508H304.089L355.115 97.9899Z" fill="white"/>
<path d="M123.026 97.9899H201.72L150.713 349.508H72L123.026 97.9899Z" fill="white"/>
<path d="M1195.99 163.253L1081.01 340.454H1017.58L975.636 163.253H1043.57L1061.83 279.612L1128.06 163.349L1195.99 163.253Z" fill="white"/>
</svg>
