<svg width="1645" height="329" viewBox="0 0 1645 329" fill="none" xmlns="http://www.w3.org/2000/svg">
<g clip-path="url(#clip0)">
<path d="M706.083 145.081L682.248 254.529H620.158L643.992 145.081C645.86 136.478 644.777 134.892 635.979 134.892H613.564C604.822 134.892 602.991 136.478 601.142 144.862C601.142 144.862 601.142 145.008 601.142 145.081L577.307 254.529H515.161L539.014 145.081C540.882 136.478 539.799 134.892 530.982 134.892H508.567C499.75 134.892 497.976 136.496 496.108 145.081L472.254 254.529H410.164L446.757 86.5202H497.191L505.186 100.955C509.785 96.2305 515.352 92.5033 521.525 90.0163C527.697 87.5292 534.337 86.338 541.013 86.5202H553.883C578.166 86.5202 594.548 96.8179 600.413 114.224C611.266 94.8678 626.994 86.5202 645.991 86.5202H658.88C695.361 86.5202 713.909 109.503 706.083 145.081Z" fill="#5965E0"/>
<path d="M895.432 145.081L884.355 195.968C876.603 231.545 848.024 254.528 811.506 254.528H764.471C728.009 254.528 709.46 231.527 717.212 195.95L728.289 145.081C736.022 109.503 764.602 86.5199 801.139 86.5199H848.248C884.636 86.5199 903.203 109.503 895.432 145.081ZM833.286 145.081C835.154 136.478 834.07 134.892 825.272 134.892H802.857C794.041 134.892 792.266 136.496 790.398 145.081L779.303 195.95C777.435 204.552 778.537 206.138 787.335 206.138H809.75C818.548 206.138 820.341 204.534 822.209 195.95L833.286 145.081Z" fill="#5965E0"/>
<path d="M1282.94 131.703C1280.66 141.253 1275.18 149.787 1267.36 155.943L1235.73 181.46C1228.15 187.681 1218.61 191.181 1208.71 191.375H1164.92L1163.93 195.877C1162.06 204.479 1163.15 206.065 1171.96 206.065H1266.7L1256.17 254.456H1149.02C1112.56 254.456 1094.01 231.454 1101.77 195.877L1112.84 145.008C1120.59 109.43 1149.17 86.447 1185.69 86.447H1232.84C1269.21 86.5199 1288.02 108.3 1282.94 131.703ZM1217.9 145.08C1219.76 136.478 1218.68 134.892 1209.86 134.892H1187.45C1178.67 134.874 1176.8 136.496 1174.93 145.08L1171.2 162.596H1208.18C1209.84 162.529 1211.43 161.935 1212.71 160.906C1213.99 159.876 1214.9 158.466 1215.28 156.891L1217.9 145.08Z" fill="#5965E0"/>
<path d="M1352.74 226.004C1349.3 241.77 1336.55 254.546 1317.25 254.546C1297.95 254.546 1290.78 241.788 1294.22 226.004C1297.65 210.22 1310.41 197.48 1329.71 197.48C1349 197.48 1356.12 210.22 1352.74 226.004Z" fill="#4CD62B"/>
<path d="M1485.96 86.5196L1475.42 134.874L1449.27 254.51H1387.2L1413.35 134.874H1382.36L1392.92 86.5014L1485.96 86.5196ZM1439.86 55.1524C1429.1 43.4877 1432.39 23.4754 1447.16 10.4802C1461.94 -2.51506 1482.65 -3.57218 1493.47 8.11077C1504.28 19.7937 1500.94 39.806 1486.16 52.8013C1471.39 65.7965 1450.64 66.8536 1439.86 55.1524Z" fill="#5965E0"/>
<path d="M1585.6 110.706L1567.03 195.95C1565.16 204.552 1566.25 206.138 1575.04 206.138H1613.65L1603.12 254.528H1552.14C1515.68 254.528 1497.11 231.527 1504.86 195.95L1523.43 110.706H1499.95L1510.49 62.3155H1534.02L1542.65 22.6919H1604.8L1596.17 62.3155H1645.03L1634.44 110.706H1585.6Z" fill="#5965E0"/>
<path d="M167.849 24.6423H246.639L181.093 329.001H102.303L167.849 24.6423Z" fill="#5965E0"/>
<path d="M283.457 24.6423H362.247L311.177 263.113H232.369L283.457 24.6423Z" fill="#5965E0"/>
<path d="M51.0864 24.6423H129.876L78.8066 263.113H-0.00170898L51.0864 24.6423Z" fill="#5965E0"/>
<path d="M1125.36 86.5197L1010.24 254.528H946.725L904.734 86.5197H972.746L991.033 196.843L1057.34 86.6108L1125.36 86.5197Z" fill="#5965E0"/>
</g>
<defs>
<clipPath id="clip0">
<rect width="1645" height="329" fill="white"/>
</clipPath>
</defs>
</svg>
